<svg id="SvgjsSvg1001" width="288" height="288" xmlns="http://www.w3.org/2000/svg" version="1.1" xmlns:xlink="http://www.w3.org/1999/xlink" xmlns:svgjs="http://svgjs.com/svgjs"><defs id="SvgjsDefs1002"></defs><g id="SvgjsG1008"><svg xmlns="http://www.w3.org/2000/svg" version="1.0" viewBox="0 0 100 100" width="288" height="288"><path d="M235 911 c-124 -7 -145 -13 -182 -53 -38 -41 -47 -100 -47 -308 0-220 10 -283 53 -324 44 -42 108 -48 487 -44 328 3 344 4 371 24 60 43 68 78
71 306 5 290 -15 363 -106 387 -48 13 -492 21 -647 12z m179 -202 c56 -44 18
-129 -58 -129 -73 0 -104 79 -50 128 31 28 73 28 108 1z m281 -4 c64 -63 -12
-152 -100 -119 -26 10 -44 62 -33 95 18 51 93 65 133 24z m-87 -261 c34 -17
64 -41 83 -67 l29 -41 -31 -13 c-29 -12 -32 -11 -56 18 -55 64 -158 88 -240
54 -20 -8 -37 -14 -37 -13 -1 2 -9 13 -20 25 -18 21 -17 22 13 37 80 42 172
41 259 0z" transform="matrix(.1 0 0 -.1 0 100)" fill="#1e88e5" class="color000 svgShape"></path></svg></g></svg>